
<svg aria-hidden="true" style="position: absolute; width: 0; height: 0; overflow: hidden;" version="1.1" xmlns="http://www.w3.org/2000/svg" xmlns:xlink="http://www.w3.org/1999/xlink">
<defs>
<symbol id="icon-menu" viewBox="0 0 32 33">
<path d="M28 13.8333H4" stroke-width="2" stroke-linecap="round" stroke-linejoin="round"/>
<path d="M28 8.5H4" stroke-width="2" stroke-linecap="round" stroke-linejoin="round"/>
<path d="M28 19.1667H4" stroke-width="2" stroke-linecap="round" stroke-linejoin="round"/>
<path d="M28 24.5H4" stroke-width="2" stroke-linecap="round" stroke-linejoin="round"/>
</symbol>
<symbol id="icon-x" viewBox="0 0 32 32">
<path stroke-linejoin="round" stroke-linecap="round" stroke-miterlimit="4" stroke-width="2.6667" d="M24 8l-16 16"></path>
<path stroke-linejoin="round" stroke-linecap="round" stroke-miterlimit="4" stroke-width="2.6667" d="M8 8l16 16"></path>
</symbol>
<symbol id="shopping-icon" viewBox="0 0 22 22">
<path d="M4.00014 13H17.1359C18.1487 13 18.6551 13 19.0582 12.8112C19.4134 12.6448 19.7118 12.3777 19.9163 12.0432C20.1485 11.6633 20.2044 11.16 20.3163 10.1534L20.9013 4.88835C20.9355 4.58088 20.9525 4.42715 20.9031 4.30816C20.8597 4.20366 20.7821 4.11697 20.683 4.06228C20.5702 4 20.4155 4 20.1062 4H3.50014M1 1H2.24844C2.51306 1 2.64537 1 2.74889 1.05032C2.84002 1.09463 2.91554 1.16557 2.96544 1.25376C3.02212 1.35394 3.03037 1.48599 3.04688 1.7501L3.95312 16.2499C3.96963 16.514 3.97788 16.6461 4.03456 16.7462C4.08446 16.8344 4.15998 16.9054 4.25111 16.9497C4.35463 17 4.48694 17 4.75156 17H18M6.5 20.5H6.51M15.5 20.5H15.51M7 20.5C7 20.7761 6.77614 21 6.5 21C6.22386 21 6 20.7761 6 20.5C6 20.2239 6.22386 20 6.5 20C6.77614 20 7 20.2239 7 20.5ZM16 20.5C16 20.7761 15.7761 21 15.5 21C15.2239 21 15 20.7761 15 20.5C15 20.2239 15.2239 20 15.5 20C15.7761 20 16 20.2239 16 20.5Z" stroke-width="1.5" stroke-linecap="round" stroke-linejoin="round"/>
</symbol>
<symbol id="star" viewBox="0 0 14 14">
<path d="M6.04894 1.42705C6.3483 0.505742 7.6517 0.505741 7.95106 1.42705L8.79611 4.02786C8.92999 4.43989 9.31394 4.71885 9.74717 4.71885H12.4818C13.4505 4.71885 13.8533 5.95846 13.0696 6.52786L10.8572 8.13525C10.5067 8.3899 10.3601 8.84127 10.494 9.25329L11.339 11.8541C11.6384 12.7754 10.5839 13.5415 9.80017 12.9721L7.58779 11.3647C7.2373 11.1101 6.7627 11.1101 6.41222 11.3647L4.19983 12.9721C3.41612 13.5415 2.36164 12.7754 2.66099 11.8541L3.50604 9.25329C3.63992 8.84127 3.49326 8.3899 3.14277 8.13525L0.930391 6.52787C0.146677 5.95846 0.549452 4.71885 1.51818 4.71885H4.25283C4.68606 4.71885 5.07001 4.43989 5.20389 4.02786L6.04894 1.42705Z"/>
</symbol>
<symbol id="heart" viewBox="0 0 32 32">
<path opacity="0.5" stroke="#f8f8f8" style="stroke: var(--color1, #f8f8f8)" stroke-linejoin="round" stroke-linecap="round" stroke-miterlimit="4" stroke-width="2.9091" d="M27.787 6.147c-0.681-0.681-1.49-1.222-2.38-1.591s-1.844-0.559-2.807-0.559-1.917 0.19-2.807 0.559c-0.89 0.369-1.698 0.909-2.38 1.591l-1.413 1.413-1.413-1.413c-1.376-1.376-3.241-2.148-5.187-2.148s-3.811 0.773-5.187 2.148c-1.376 1.376-2.148 3.241-2.148 5.187s0.773 3.811 2.148 5.187l11.787 11.787 11.787-11.787c0.681-0.681 1.222-1.49 1.591-2.38s0.559-1.844 0.559-2.807c0-0.963-0.19-1.917-0.559-2.807s-0.909-1.699-1.591-2.38v0z"></path>
</symbol>
</defs>
</svg>


